<svg width="11" height="15" viewBox="0 0 11 15" fill="none" xmlns="http://www.w3.org/2000/svg">
    <path 
    d="M8.09381 7.49668L1.02373 1.58234L1.02044 1.57959L1.02046 1.57956C0.856706 1.43773 0.755557 1.23738 0.757832 1.01835C0.760106 0.799432 0.865274 0.601122 1.03138 0.462165C1.19624 0.324256 1.41126 0.251607 1.62872 0.250026C1.84619 0.248446 2.06231 0.317952 2.22953 0.453056L2.23148 0.454632L2.23147 0.454641L6.15906 3.69354L6.16179 3.6958L6.16177 3.69582L9.97651 6.93359C9.97672 6.93377 9.97693 6.93395 9.97715 6.93413C10.1448 7.07467 10.25 7.27564 10.25 7.49686C10.25 7.71836 10.1445 7.91956 9.97651 8.06012L9.97648 8.06015L2.23283 14.538L2.23277 14.538C2.14974 14.6074 2.05346 14.6606 1.9503 14.6963C1.84715 14.732 1.73774 14.75 1.62802 14.75L8.09381 7.49668ZM8.09381 7.49668L1.02379 13.411C1.02377 13.411 1.02375 13.411 1.02373 13.411C0.898625 13.5156 0.806829 13.6547 0.768908 13.8139C0.730784 13.974 0.750922 14.1393 0.823683 14.2863C0.89592 14.4323 1.01448 14.5498 1.15704 14.6296C1.29948 14.7092 1.46324 14.75 1.62797 14.75L8.09381 7.49668Z" 
    fill="rgba(230, 230, 230, 1)" 
    stroke="rgba(230, 230, 230, 1)" 
    stroke-width="0.5"/>
</svg>
    